<svg xmlns="http://www.w3.org/2000/svg">
  <!-- Main logo -->
  <symbol id="logo" viewBox="0 0 32 32">
    <path
      d="M0 8C0 3.58172 3.58172 0 8 0H24C28.4183 0 32 3.58172 32 8V24C32 28.4183 28.4183 32 24 32H8C3.58172 32 0 28.4183 0 24V8Z"
      fill="currentColor"
    />
    <path
      d="M16 16C14.5 14.125 13 13 11.5 13C10.7044 13 9.94129 13.3161 9.37868 13.8787C8.81607 14.4413 8.5 15.2044 8.5 16C8.5 16.7956 8.81607 17.5587 9.37868 18.1213C9.94129 18.6839 10.7044 19 11.5 19C13 19 14.5 17.875 16 16Z"
      fill="none"
      stroke="white"
      stroke-width="1.875"
      stroke-linecap="round"
      stroke-linejoin="round"
    />
    <path
      d="M16 16C17.5 17.875 19 19 20.5 19C21.2956 19 22.0587 18.6839 22.6213 18.1213C23.1839 17.5587 23.5 16.7956 23.5 16C23.5 15.2044 23.1839 14.4413 22.6213 13.8787C22.0587 13.3161 21.2956 13 20.5 13C19 13 17.5 14.125 16 16Z"
      fill="none"
      stroke="white"
      stroke-width="1.875"
      stroke-linecap="round"
      stroke-linejoin="round"
    />
  </symbol>

  <!-- Icons for navigation-->
  <symbol id="dashboard" viewBox="0 0 18 18">
    <path
      d="M2.25 9L3.75 7.5M3.75 7.5L9 2.25L14.25 7.5M3.75 7.5V15C3.75 15.1989 3.82902 15.3897 3.96967 15.5303C4.11032 15.671 4.30109 15.75 4.5 15.75H6.75M14.25 7.5L15.75 9M14.25 7.5V15C14.25 15.1989 14.171 15.3897 14.0303 15.5303C13.8897 15.671 13.6989 15.75 13.5 15.75H11.25M6.75 15.75C6.94891 15.75 7.13968 15.671 7.28033 15.5303C7.42098 15.3897 7.5 15.1989 7.5 15V12C7.5 11.8011 7.57902 11.6103 7.71967 11.4697C7.86032 11.329 8.05109 11.25 8.25 11.25H9.75C9.94891 11.25 10.1397 11.329 10.2803 11.4697C10.421 11.6103 10.5 11.8011 10.5 12V15C10.5 15.1989 10.579 15.3897 10.7197 15.5303C10.8603 15.671 11.0511 15.75 11.25 15.75M6.75 15.75H11.25"
      fill="none"
      stroke="currentColor"
      stroke-width="1.5"
      stroke-linecap="round"
      stroke-linejoin="round"
    />
  </symbol>
  <symbol id="schedule" viewBox="0 0 18 18">
    <path
      d="M6 5.25V2.25M12 5.25V2.25M5.25 8.25H12.75M3.75 15.75H14.25C14.6478 15.75 15.0294 15.592 15.3107 15.3107C15.592 15.0294 15.75 14.6478 15.75 14.25V5.25C15.75 4.85218 15.592 4.47064 15.3107 4.18934C15.0294 3.90804 14.6478 3.75 14.25 3.75H3.75C3.35218 3.75 2.97064 3.90804 2.68934 4.18934C2.40804 4.47064 2.25 4.85218 2.25 5.25V14.25C2.25 14.6478 2.40804 15.0294 2.68934 15.3107C2.97064 15.592 3.35218 15.75 3.75 15.75Z"
      fill="none"
      stroke="currentColor"
      stroke-width="1.5"
      stroke-linecap="round"
      stroke-linejoin="round"
    />
  </symbol>
  <symbol id="clock" viewBox="0 0 18 18">
    <path
      d="M9 6V9L11.25 11.25M15.75 9C15.75 9.88642 15.5754 10.7642 15.2362 11.5831C14.897 12.4021 14.3998 13.1462 13.773 13.773C13.1462 14.3998 12.4021 14.897 11.5831 15.2362C10.7642 15.5754 9.88642 15.75 9 15.75C8.11358 15.75 7.23583 15.5754 6.41689 15.2362C5.59794 14.897 4.85382 14.3998 4.22703 13.773C3.60023 13.1462 3.10303 12.4021 2.76381 11.5831C2.42459 10.7642 2.25 9.88642 2.25 9C2.25 7.20979 2.96116 5.4929 4.22703 4.22703C5.4929 2.96116 7.20979 2.25 9 2.25C10.7902 2.25 12.5071 2.96116 13.773 4.22703C15.0388 5.4929 15.75 7.20979 15.75 9Z"
      fill="none"
      stroke="currentColor"
      stroke-width="1.5"
      stroke-linecap="round"
      stroke-linejoin="round"
    />
  </symbol>
  <symbol id="list" viewBox="0 0 18 18">
    <path
      d="M3 4.5H15M3 7.5H15M3 10.5H15M3 13.5H15"
      fill="none"
      stroke="currentColor"
      stroke-width="1.5"
      stroke-linecap="round"
      stroke-linejoin="round"
    />
  </symbol>
  <symbol id="statistics" viewBox="0 0 18 18">
    <path
      d="M6.75 14.25V9.75C6.75 9.35218 6.59196 8.97064 6.31066 8.68934C6.02936 8.40804 5.64782 8.25 5.25 8.25H3.75C3.35218 8.25 2.97064 8.40804 2.68934 8.68934C2.40804 8.97064 2.25 9.35218 2.25 9.75V14.25C2.25 14.6478 2.40804 15.0294 2.68934 15.3107C2.97064 15.592 3.35218 15.75 3.75 15.75H5.25C5.64782 15.75 6.02936 15.592 6.31066 15.3107C6.59196 15.0294 6.75 14.6478 6.75 14.25ZM6.75 14.25V6.75C6.75 6.35218 6.90804 5.97064 7.18934 5.68934C7.47064 5.40804 7.85218 5.25 8.25 5.25H9.75C10.1478 5.25 10.5294 5.40804 10.8107 5.68934C11.092 5.97064 11.25 6.35218 11.25 6.75V14.25M6.75 14.25C6.75 14.6478 6.90804 15.0294 7.18934 15.3107C7.47064 15.592 7.85218 15.75 8.25 15.75H9.75C10.1478 15.75 10.5294 15.592 10.8107 15.3107C11.092 15.0294 11.25 14.6478 11.25 14.25M11.25 14.25V3.75C11.25 3.35218 11.408 2.97064 11.6893 2.68934C11.9706 2.40804 12.3522 2.25 12.75 2.25H14.25C14.6478 2.25 15.0294 2.40804 15.3107 2.68934C15.592 2.97064 15.75 3.35218 15.75 3.75V14.25C15.75 14.6478 15.592 15.0294 15.3107 15.3107C15.0294 15.592 14.6478 15.75 14.25 15.75H12.75C12.3522 15.75 11.9706 15.592 11.6893 15.3107C11.408 15.0294 11.25 14.6478 11.25 14.25Z"
      fill="none"
      stroke="currentColor"
      stroke-width="1.5"
      stroke-linecap="round"
      stroke-linejoin="round"
    />
  </symbol>
  <symbol id="eye" viewBox="0 0 16 16">
    <path
      fill-rule="evenodd"
      clip-rule="evenodd"
      d="M7.99961 11.1006C6.35287 11.1006 4.5741 10.1556 3.07702 8.00059C4.5741 5.84554 6.35287 4.90059 7.99961 4.90059C9.64635 4.90059 11.4251 5.84554 12.9222 8.00058C11.4251 10.1556 9.64635 11.1006 7.99961 11.1006ZM14.7628 7.52359C12.9877 4.68347 10.5694 3.10059 7.99961 3.10059C5.42984 3.10059 3.01148 4.68347 1.23641 7.52359C1.05401 7.81543 1.05401 8.18574 1.23641 8.47758C3.01148 11.3177 5.42984 12.9006 7.99961 12.9006C10.5694 12.9006 12.9877 11.3177 14.7628 8.47758C14.9452 8.18574 14.9452 7.81543 14.7628 7.52359ZM7.99981 10.6672C9.47257 10.6672 10.6665 9.47332 10.6665 8.00056C10.6665 6.5278 9.47257 5.33389 7.99981 5.33389C6.52705 5.33389 5.33314 6.5278 5.33314 8.00056C5.33314 9.47332 6.52705 10.6672 7.99981 10.6672Z"
      fill="currentColor"
    ></path>
  </symbol>

</svg>
